# xmcd CD database file generated by OrangeCD 6.0
#
# Track frame offsets:
#	150
#	16746
#	32655
#	43072
#	58221
#	69817
#	86775
#	96769
#	111193
#	124037
#	140111
#	154243
#	167392
#	183146
#	197778
#	211966
#
# Disc length: 3077 seconds
#
# Revision: 0
# Processed by: cddbd v1.5.2PL0 Copyright (c) Steve Scherf et al.
# Submitted via: OrangeCD 6.0
#
DISCID=d80c0310
DTITLE=Rick Pickren - Songs From The Lonesome Prairie
DYEAR=1900
DGENRE=
TTITLE0=Git Along Lil' Dogies
TTITLE1=Home on the Range
TTITLE2=Blood on the Saddle
TTITLE3=The Cowboy's Lament
TTITLE4=Jesse James
TTITLE5=Cowboy Jack
TTITLE6=I Ride an Old Paint
TTITLE7=Doney Gal
TTITLE8=The Gal I Left Behind Me
TTITLE9=The Brazos River
TTITLE10=I Hope A Star Will Fall
TTITLE11=Goin' Back To Arizona
TTITLE12=Bury Me Beneath The Willow
TTITLE13=Rye Whiskey
TTITLE14=If I Could (I Would) I'd be a Cowboy
TTITLE15=Can I Count on You
EXTD=
EXTT0=
EXTT1=
EXTT2=
EXTT3=
EXTT4=
EXTT5=
EXTT6=
EXTT7=
EXTT8=
EXTT9=
EXTT10=
EXTT11=
EXTT12=
EXTT13=
EXTT14=
EXTT15=
PLAYORDER=
